<svg t="1762017998178" class="icon" viewBox="0 0 1024 1024" version="1.1" xmlns="http://www.w3.org/2000/svg" p-id="1563"
    width="200" height="200">
    <path
        d="M914.825846 0C975.163077 0 1024 48.836923 1024 109.174154V948.381538c0 41.747692-33.870769 75.539692-75.618462 75.539693H75.618462a75.618462 75.618462 0 0 1-75.618462-75.618462V512c0-60.258462 48.836923-109.095385 109.174154-109.095385h293.651692v-293.80923C402.825846 48.836923 451.662769 0 512 0h402.825846z m-512 486.793846H109.174154a25.206154 25.206154 0 0 0-25.206154 25.206154v428.032h318.857846V486.793846z m512-402.825846H512a25.206154 25.206154 0 0 0-25.206154 25.206154V486.793846h-0.157538v453.238154h453.395692V109.174154a25.206154 25.206154 0 0 0-25.206154-25.206154zM780.603077 671.507692a41.984 41.984 0 0 1 0 83.889231H646.222769a41.984 41.984 0 1 1 0-83.889231H780.603077z m0-201.491692a41.984 41.984 0 0 1 0 83.968H646.222769a41.984 41.984 0 1 1 0-83.968H780.603077z m0-201.412923a41.984 41.984 0 0 1 0 83.889231H646.222769a41.984 41.984 0 1 1 0-83.889231H780.603077z"
        p-id="1564"></path>
</svg>