<svg t="1766813151537" class="icon" viewBox="0 0 1090 1024" version="1.1" xmlns="http://www.w3.org/2000/svg"
    p-id="11977" id="mx_n_1766813151538" width="200" height="200">
    <path
        d="M630.916129 406.296774c23.122581-23.122581 39.63871-56.154839 39.63871-92.490322 0-69.367742-56.154839-128.825806-125.522581-128.825807-69.367742 0-125.522581 56.154839-125.522581 128.825807 0 33.032258 13.212903 66.064516 39.63871 92.490322-62.76129 33.032258-102.4 99.096774-102.4 171.767742 0 16.516129 13.212903 29.729032 29.729032 29.729032s29.729032-13.212903 29.729033-29.729032c0-72.670968 59.458065-135.432258 132.129032-135.432258s132.129032 59.458065 132.129032 135.432258c0 16.516129 13.212903 29.729032 29.729032 29.729032 13.212903 0 26.425806-9.909677 29.729033-26.425806v-6.606452c-6.606452-72.670968-46.245161-135.432258-109.006452-168.464516z m-89.187097-23.12258c-36.335484 0-66.064516-29.729032-66.064516-69.367742s29.729032-66.064516 66.064516-66.064517 66.064516 33.032258 66.064516 66.064517c3.303226 39.63871-26.425806 69.367742-66.064516 69.367742z"
        fill="#000000" p-id="11978"></path>
    <path
        d="M934.812903 0H155.251613C69.367742 0 0 69.367742 0 158.554839v472.36129c0 85.883871 69.367742 158.554839 155.251613 158.554839h779.56129c85.883871 0 155.251613-69.367742 155.251613-158.554839V158.554839C1090.064516 69.367742 1020.696774 0 934.812903 0z m82.580645 640.825806c0 42.941935-36.335484 79.277419-79.277419 79.27742H151.948387c-42.941935 0-79.277419-36.335484-79.277419-79.27742V155.251613c0-46.245161 36.335484-79.277419 79.277419-79.277419h782.864516c42.941935 0 79.277419 36.335484 79.27742 79.277419v485.574193zM819.2 944.722581H270.864516c-23.122581 0-39.63871 16.516129-36.335484 36.335484 0 19.819355 16.516129 33.032258 36.335484 36.335483h545.032258c23.122581 0 39.63871-16.516129 36.335484-36.335483 3.303226-19.819355-13.212903-36.335484-33.032258-36.335484z"
        fill="#000000" p-id="11979"></path>
</svg>