<svg t="1762058366363" class="icon" viewBox="0 0 1024 1024" version="1.1" xmlns="http://www.w3.org/2000/svg"
    p-id="19456" width="200" height="200">
    <path
        d="M977.6 585.6c-6.4 0-11.2-1.6-16-4.8-14.4-9.6-20.8-28.8-11.2-43.2 6.4-11.2 9.6-22.4 9.6-35.2 0-38.4-30.4-68.8-68.8-68.8-14.4 0-27.2 4.8-38.4 12.8-14.4 9.6-35.2 6.4-44.8-8-9.6-14.4-6.4-35.2 8-44.8 22.4-16 48-24 75.2-24 73.6 0 132.8 59.2 132.8 132.8 0 24-6.4 48-19.2 68.8-6.4 9.6-16 14.4-27.2 14.4zM926.4 1024c-8 0-16-3.2-22.4-8L811.2 928c-12.8-12.8-12.8-32-1.6-44.8 12.8-12.8 32-12.8 44.8-1.6l92.8 86.4c12.8 12.8 12.8 32 1.6 44.8-6.4 8-14.4 11.2-22.4 11.2zM489.6 1024c-8 0-17.6-3.2-24-9.6-12.8-12.8-11.2-33.6 1.6-44.8l92.8-86.4c12.8-12.8 33.6-11.2 44.8 1.6 12.8 12.8 11.2 33.6-1.6 44.8l-92.8 86.4c-4.8 4.8-12.8 8-20.8 8zM352 848H104C80 848 64 835.2 64 827.2V148.8C64 140.8 80 128 104 128H240v48c0 17.6 14.4 32 32 32s32-14.4 32-32V128h224v48c0 17.6 14.4 32 32 32s32-14.4 32-32V128h152C768 128 784 140.8 784 148.8v144c0 17.6 14.4 32 32 32s32-14.4 32-32v-144c0-48-44.8-84.8-104-84.8H592V32c0-17.6-14.4-32-32-32s-32 14.4-32 32v32H304V32c0-17.6-14.4-32-32-32s-32 14.4-32 32v32H104C44.8 64 0 100.8 0 148.8v680c0 48 44.8 84.8 104 84.8H352c17.6 0 32-14.4 32-32s-14.4-33.6-32-33.6z"
        p-id="19457"></path>
    <path
        d="M704 304c0-17.6-14.4-32-32-32H160c-17.6 0-32 14.4-32 32s14.4 32 32 32h512c17.6 0 32-14.4 32-32zM320 464H160c-17.6 0-32 14.4-32 32s14.4 32 32 32h160c17.6 0 32-14.4 32-32s-14.4-32-32-32zM320 656H160c-17.6 0-32 14.4-32 32s14.4 32 32 32h160c17.6 0 32-14.4 32-32s-14.4-32-32-32zM704 443.2c-144 0-260.8 116.8-260.8 260.8S560 964.8 704 964.8 964.8 848 964.8 704 848 443.2 704 443.2z m0 457.6c-108.8 0-196.8-88-196.8-196.8S595.2 507.2 704 507.2 900.8 595.2 900.8 704 812.8 900.8 704 900.8z"
        p-id="19458"></path>
    <path
        d="M457.6 537.6c-6.4-11.2-9.6-22.4-9.6-35.2 0-38.4 30.4-68.8 68.8-68.8 14.4 0 27.2 4.8 38.4 12.8 14.4 9.6 35.2 6.4 44.8-8 9.6-14.4 6.4-35.2-8-44.8-22.4-16-48-24-75.2-24-73.6 0-132.8 59.2-132.8 132.8 0 24 6.4 48 19.2 68.8 6.4 9.6 16 16 27.2 16 6.4 0 11.2-1.6 16-4.8 16-9.6 20.8-30.4 11.2-44.8zM736 705.6v-100.8c0-17.6-14.4-32-32-32s-32 14.4-32 32V720c0 8 3.2 16 9.6 22.4l57.6 57.6c6.4 6.4 14.4 9.6 22.4 9.6s16-3.2 22.4-9.6c12.8-12.8 12.8-32 0-44.8l-48-49.6z"
        p-id="19459"></path>
</svg>