<svg t="1762018336617" class="icon" viewBox="0 0 1024 1024" version="1.1" xmlns="http://www.w3.org/2000/svg"
    p-id="15503" width="200" height="200">
    <path
        d="M665.6 358.4a307.2 307.2 0 1 1 0 614.4 307.2 307.2 0 0 1 0-614.4z m51.2-307.2a102.4 102.4 0 0 1 102.4 102.4v142.848a25.6 25.6 0 0 1-51.2 0V153.6a51.2 51.2 0 0 0-45.2096-50.8416L716.8 102.4H204.8a51.2 51.2 0 0 0-50.8416 45.2096L153.6 153.6v665.6a51.2 51.2 0 0 0 45.2096 50.8416L204.8 870.4l141.056 0.0512a25.6 25.6 0 0 1 0 51.2L204.8 921.6a102.4 102.4 0 0 1-102.4-102.4V153.6a102.4 102.4 0 0 1 102.4-102.4h512z m-51.2 358.4a256 256 0 1 0 0 512 256 256 0 0 0 0-512z m-25.6 102.4a25.6 25.6 0 0 1 25.6 25.6V665.6h128a25.6 25.6 0 1 1 0 51.2h-153.6a25.6 25.6 0 0 1-25.6-25.6v-153.6a25.6 25.6 0 0 1 25.6-25.6z m-256-102.4a25.6 25.6 0 0 1 0 51.2h-102.4a25.6 25.6 0 0 1 0-51.2h102.4z m256-204.8a25.6 25.6 0 1 1 0 51.2h-358.4a25.6 25.6 0 0 1 0-51.2h358.4z"
        p-id="15504"></path>
</svg>